<?xml version="1.0" standalone="no"?>
<!DOCTYPE svg PUBLIC "-//W3C//DTD SVG 20010904//EN"
 "http://www.w3.org/TR/2001/REC-SVG-20010904/DTD/svg10.dtd">
<svg version="1.0" xmlns="http://www.w3.org/2000/svg"
 width="520.000000pt" height="520.000000pt" viewBox="0 0 520.000000 520.000000"
 preserveAspectRatio="xMidYMid meet">
<metadata>
Created by potrace 1.11, written by Peter Selinger 2001-2013
</metadata>
<g transform="translate(0.000000,520.000000) scale(0.100000,-0.100000)"
fill="#000000" stroke="none">
<path d="M0 2600 l0 -2600 2600 0 2600 0 0 1178 c0 647 -3 1336 -7 1530 l-6
354 -336 310 c-185 171 -391 362 -458 425 l-122 114 -4 62 c-2 34 -4 -66 -5
-223 -2 -201 -7 -305 -17 -352 -15 -75 -53 -166 -54 -133 -1 12 -40 59 -91
110 -85 84 -90 92 -90 132 0 52 -34 83 -89 83 -30 0 -44 8 -74 38 -31 31 -37
45 -37 79 0 51 -34 83 -89 83 -31 1 -48 12 -128 88 -51 48 -98 85 -105 83 -9
-2 -10 0 -3 8 6 6 37 21 70 33 55 20 83 22 345 27 248 5 314 12 234 23 -19 3
-180 146 -464 413 -52 50 -142 133 -200 185 -96 87 -159 146 -472 437 l-107
100 -383 6 c-211 4 -861 7 -1445 7 l-1063 0 0 -2600z m2735 1471 c137 -30 220
-58 336 -113 l107 -50 -38 -82 c-40 -87 -54 -137 -65 -228 -4 -32 -9 -58 -12
-58 -2 0 -35 17 -71 39 -80 46 -175 84 -280 113 -66 19 -105 22 -267 22 -164
1 -202 -2 -275 -21 -421 -108 -740 -436 -830 -853 -93 -430 71 -876 418 -1137
386 -291 906 -305 1308 -37 257 171 425 433 487 762 l7 32 -484 0 c-267 0
-491 3 -500 6 -27 10 -18 55 37 184 37 84 63 131 81 145 27 19 42 20 539 23
550 3 595 0 648 -46 60 -50 70 -118 49 -320 -66 -609 -481 -1111 -1063 -1286
-150 -46 -250 -60 -427 -60 -131 0 -188 4 -277 22 -311 62 -554 192 -779 416
-222 223 -349 457 -416 770 -31 148 -31 427 1 576 57 270 177 511 346 698 249
277 552 442 915 498 121 19 388 11 505 -15z m1053 -313 c8 -8 12 -45 12 -100
l0 -88 88 0 c55 0 92 -4 100 -12 7 -7 12 -37 12 -68 0 -81 -15 -93 -119 -88
l-81 3 0 -86 c0 -53 -5 -90 -12 -97 -7 -7 -39 -12 -75 -12 -77 0 -83 8 -83
117 l0 78 -87 3 c-48 2 -91 6 -95 8 -13 8 -9 129 4 142 7 7 44 12 95 12 l83 0
0 81 c0 111 6 119 83 119 36 0 68 -5 75 -12z m-1609 -867 l-4 -646 588 -3
c323 -1 587 -4 587 -6 0 -3 -9 -25 -20 -51 -29 -69 -104 -180 -162 -241 l-51
-54 -591 0 c-671 0 -640 -4 -683 80 l-23 44 0 677 0 677 68 45 c105 70 265
142 286 130 4 -3 7 -296 5 -652z"/>
</g>
</svg>
